<svg width="35" height="35" viewBox="0 0 35 35" fill="none" xmlns="http://www.w3.org/2000/svg">
<g id="content-copy">
<path id="Vector" d="M27.7077 30.6247H11.666V10.208H27.7077M27.7077 7.29134H11.666C10.8925 7.29134 10.1506 7.59863 9.60362 8.14561C9.05664 8.69259 8.74935 9.43446 8.74935 10.208V30.6247C8.74935 31.3982 9.05664 32.1401 9.60362 32.6871C10.1506 33.234 10.8925 33.5413 11.666 33.5413H27.7077C28.4812 33.5413 29.2231 33.234 29.7701 32.6871C30.3171 32.1401 30.6243 31.3982 30.6243 30.6247V10.208C30.6243 9.43446 30.3171 8.69259 29.7701 8.14561C29.2231 7.59863 28.4812 7.29134 27.7077 7.29134ZM23.3327 1.45801H5.83268C5.05913 1.45801 4.31727 1.7653 3.77029 2.31228C3.22331 2.85926 2.91602 3.60113 2.91602 4.37467V24.7913H5.83268V4.37467H23.3327V1.45801Z" fill="#757575"/>
</g>
</svg>
